<svg xmlns="http://www.w3.org/2000/svg" xmlns:xlink="http://www.w3.org/1999/xlink" width="500" zoomAndPan="magnify" viewBox="0 0 375 374.999991" height="500" preserveAspectRatio="xMidYMid meet" version="1.0"><defs><g/><clipPath id="b2ff082424"><path d="M 49 135.058594 L 101.484375 135.058594 L 101.484375 205.558594 L 49 205.558594 Z M 49 135.058594 " clip-rule="nonzero"/></clipPath></defs><g clip-path="url(#b2ff082424)"><path fill="#ffffff" d="M 101.039062 164.816406 L 99.84375 154.242188 C 99.628906 152.390625 98.054688 150.980469 96.183594 150.980469 L 90.222656 150.980469 L 90.222656 147.960938 C 90.222656 140.878906 84.460938 135.125 77.367188 135.125 C 70.277344 135.125 64.515625 140.878906 64.515625 147.960938 L 64.515625 150.980469 L 58.554688 150.980469 C 56.683594 150.980469 55.109375 152.390625 54.894531 154.242188 L 49.511719 201.445312 C 49.25 203.707031 51.023438 205.675781 53.304688 205.675781 L 55.304688 205.675781 C 63.578125 170.210938 90.089844 165.292969 101.039062 164.816406 Z M 88.582031 154.832031 C 89.484375 154.832031 90.222656 155.570312 90.222656 156.472656 C 90.222656 157.375 89.484375 158.109375 88.582031 158.109375 C 87.679688 158.109375 86.941406 157.375 86.941406 156.472656 C 86.941406 155.570312 87.679688 154.832031 88.582031 154.832031 Z M 67.796875 147.980469 C 67.796875 142.714844 72.082031 138.421875 77.367188 138.421875 C 82.65625 138.421875 86.941406 142.714844 86.941406 147.980469 L 86.941406 150.996094 L 67.796875 150.996094 Z M 66.15625 154.832031 C 67.058594 154.832031 67.796875 155.570312 67.796875 156.472656 C 67.796875 157.375 67.058594 158.109375 66.15625 158.109375 C 65.253906 158.109375 64.515625 157.375 64.515625 156.472656 C 64.515625 155.570312 65.253906 154.832031 66.15625 154.832031 Z M 66.15625 154.832031 " fill-opacity="1" fill-rule="nonzero"/></g><g fill="#ffffff" fill-opacity="1"><g transform="translate(77.481453, 224.038315)"><g><path d="M 7.9375 0.453125 C 5.539062 0.453125 4.34375 -0.785156 4.34375 -3.265625 L 4.34375 -36.046875 C 4.34375 -38.484375 5.5625 -39.703125 8 -39.703125 L 21.5625 -39.703125 C 25.914062 -39.703125 29.273438 -38.613281 31.640625 -36.4375 C 34.015625 -34.257812 35.203125 -31.21875 35.203125 -27.3125 C 35.203125 -23.40625 34.015625 -20.351562 31.640625 -18.15625 C 29.273438 -15.957031 25.914062 -14.859375 21.5625 -14.859375 L 11.546875 -14.859375 L 11.546875 -3.265625 C 11.546875 -0.785156 10.34375 0.453125 7.9375 0.453125 Z M 11.546875 -20.546875 L 20.4375 -20.546875 C 25.625 -20.546875 28.21875 -22.800781 28.21875 -27.3125 C 28.21875 -31.78125 25.625 -34.015625 20.4375 -34.015625 L 11.546875 -34.015625 Z M 11.546875 -20.546875 "/></g></g></g><g fill="#ffffff" fill-opacity="1"><g transform="translate(114.194601, 224.038315)"><g><path d="M 13.625 0.5625 C 6.863281 0.5625 3.484375 -3.226562 3.484375 -10.8125 L 3.484375 -24.4375 C 3.484375 -26.800781 4.648438 -27.984375 6.984375 -27.984375 C 9.347656 -27.984375 10.53125 -26.800781 10.53125 -24.4375 L 10.53125 -10.703125 C 10.53125 -8.742188 10.921875 -7.296875 11.703125 -6.359375 C 12.492188 -5.421875 13.753906 -4.953125 15.484375 -4.953125 C 17.359375 -4.953125 18.894531 -5.597656 20.09375 -6.890625 C 21.300781 -8.191406 21.90625 -9.910156 21.90625 -12.046875 L 21.90625 -24.4375 C 21.90625 -26.800781 23.066406 -27.984375 25.390625 -27.984375 C 27.753906 -27.984375 28.9375 -26.800781 28.9375 -24.4375 L 28.9375 -3.15625 C 28.9375 -0.75 27.796875 0.453125 25.515625 0.453125 C 23.222656 0.453125 22.078125 -0.75 22.078125 -3.15625 L 22.078125 -4.109375 C 20.234375 -0.992188 17.414062 0.5625 13.625 0.5625 Z M 13.625 0.5625 "/></g></g></g><g fill="#ffffff" fill-opacity="1"><g transform="translate(146.797225, 224.038315)"><g><path d="M 13.734375 0.5625 C 12.117188 0.5625 10.410156 0.390625 8.609375 0.046875 C 6.804688 -0.285156 5.191406 -0.863281 3.765625 -1.6875 C 2.984375 -2.132812 2.5 -2.6875 2.3125 -3.34375 C 2.125 -4.007812 2.148438 -4.628906 2.390625 -5.203125 C 2.640625 -5.785156 3.050781 -6.207031 3.625 -6.46875 C 4.207031 -6.738281 4.894531 -6.6875 5.6875 -6.3125 C 7.1875 -5.59375 8.59375 -5.09375 9.90625 -4.8125 C 11.21875 -4.53125 12.515625 -4.390625 13.796875 -4.390625 C 15.597656 -4.390625 16.9375 -4.695312 17.8125 -5.3125 C 18.695312 -5.9375 19.140625 -6.753906 19.140625 -7.765625 C 19.140625 -9.347656 17.976562 -10.363281 15.65625 -10.8125 L 10.03125 -11.875 C 5.257812 -12.78125 2.875 -15.257812 2.875 -19.3125 C 2.875 -21.113281 3.367188 -22.671875 4.359375 -23.984375 C 5.359375 -25.296875 6.738281 -26.304688 8.5 -27.015625 C 10.269531 -27.734375 12.296875 -28.09375 14.578125 -28.09375 C 17.890625 -28.09375 20.835938 -27.363281 23.421875 -25.90625 C 24.140625 -25.53125 24.5625 -25.015625 24.6875 -24.359375 C 24.820312 -23.703125 24.75 -23.082031 24.46875 -22.5 C 24.1875 -21.914062 23.742188 -21.5 23.140625 -21.25 C 22.546875 -21.007812 21.851562 -21.078125 21.0625 -21.453125 C 19.894531 -22.054688 18.773438 -22.488281 17.703125 -22.75 C 16.640625 -23.007812 15.617188 -23.140625 14.640625 -23.140625 C 12.796875 -23.140625 11.429688 -22.820312 10.546875 -22.1875 C 9.671875 -21.550781 9.234375 -20.707031 9.234375 -19.65625 C 9.234375 -18 10.300781 -16.984375 12.4375 -16.609375 L 18.078125 -15.546875 C 20.515625 -15.085938 22.363281 -14.257812 23.625 -13.0625 C 24.882812 -11.863281 25.515625 -10.25 25.515625 -8.21875 C 25.515625 -5.476562 24.441406 -3.328125 22.296875 -1.765625 C 20.160156 -0.210938 17.304688 0.5625 13.734375 0.5625 Z M 13.734375 0.5625 "/></g></g></g><g fill="#ffffff" fill-opacity="1"><g transform="translate(174.275781, 224.038315)"><g><path d="M 7.15625 0.453125 C 4.820312 0.453125 3.65625 -0.75 3.65625 -3.15625 L 3.65625 -36.609375 C 3.65625 -38.972656 4.820312 -40.15625 7.15625 -40.15625 C 9.519531 -40.15625 10.703125 -38.972656 10.703125 -36.609375 L 10.703125 -23.53125 C 11.640625 -25.039062 12.894531 -26.175781 14.46875 -26.9375 C 16.050781 -27.707031 17.796875 -28.09375 19.703125 -28.09375 C 26.203125 -28.09375 29.453125 -24.320312 29.453125 -16.78125 L 29.453125 -3.15625 C 29.453125 -0.75 28.285156 0.453125 25.953125 0.453125 C 23.585938 0.453125 22.40625 -0.75 22.40625 -3.15625 L 22.40625 -16.4375 C 22.40625 -18.582031 22 -20.140625 21.1875 -21.109375 C 20.382812 -22.085938 19.140625 -22.578125 17.453125 -22.578125 C 15.390625 -22.578125 13.75 -21.929688 12.53125 -20.640625 C 11.3125 -19.347656 10.703125 -17.628906 10.703125 -15.484375 L 10.703125 -3.15625 C 10.703125 -0.75 9.519531 0.453125 7.15625 0.453125 Z M 7.15625 0.453125 "/></g></g></g><g fill="#ffffff" fill-opacity="1"><g transform="translate(207.216258, 224.038315)"><g><path d="M 22.8125 0.5625 C 18.675781 0.5625 15.132812 -0.269531 12.1875 -1.9375 C 9.238281 -3.613281 6.976562 -5.976562 5.40625 -9.03125 C 3.832031 -12.09375 3.046875 -15.707031 3.046875 -19.875 C 3.046875 -24.039062 3.832031 -27.644531 5.40625 -30.6875 C 6.976562 -33.726562 9.238281 -36.082031 12.1875 -37.75 C 15.132812 -39.425781 18.675781 -40.265625 22.8125 -40.265625 C 24.875 -40.265625 26.898438 -40 28.890625 -39.46875 C 30.878906 -38.945312 32.625 -38.195312 34.125 -37.21875 C 35.101562 -36.582031 35.6875 -35.820312 35.875 -34.9375 C 36.0625 -34.0625 35.945312 -33.253906 35.53125 -32.515625 C 35.113281 -31.785156 34.492188 -31.296875 33.671875 -31.046875 C 32.847656 -30.804688 31.929688 -31.023438 30.921875 -31.703125 C 29.753906 -32.453125 28.492188 -32.992188 27.140625 -33.328125 C 25.785156 -33.671875 24.414062 -33.84375 23.03125 -33.84375 C 19.007812 -33.84375 15.945312 -32.628906 13.84375 -30.203125 C 11.75 -27.785156 10.703125 -24.34375 10.703125 -19.875 C 10.703125 -15.40625 11.75 -11.953125 13.84375 -9.515625 C 15.945312 -7.078125 19.007812 -5.859375 23.03125 -5.859375 C 24.457031 -5.859375 25.863281 -6.035156 27.25 -6.390625 C 28.644531 -6.742188 29.960938 -7.296875 31.203125 -8.046875 C 32.210938 -8.691406 33.109375 -8.898438 33.890625 -8.671875 C 34.679688 -8.441406 35.273438 -7.976562 35.671875 -7.28125 C 36.066406 -6.59375 36.1875 -5.832031 36.03125 -5 C 35.882812 -4.175781 35.378906 -3.445312 34.515625 -2.8125 C 33.015625 -1.726562 31.222656 -0.894531 29.140625 -0.3125 C 27.054688 0.269531 24.945312 0.5625 22.8125 0.5625 Z M 22.8125 0.5625 "/></g></g></g><g fill="#ffffff" fill-opacity="1"><g transform="translate(245.506047, 224.038315)"><g><path d="M 12.734375 0.5625 C 10.734375 0.5625 8.953125 0.175781 7.390625 -0.59375 C 5.835938 -1.363281 4.617188 -2.40625 3.734375 -3.71875 C 2.859375 -5.03125 2.421875 -6.515625 2.421875 -8.171875 C 2.421875 -10.191406 2.945312 -11.789062 4 -12.96875 C 5.050781 -14.15625 6.757812 -15.007812 9.125 -15.53125 C 11.488281 -16.0625 14.660156 -16.328125 18.640625 -16.328125 L 20.609375 -16.328125 L 20.609375 -17.515625 C 20.609375 -19.390625 20.191406 -20.738281 19.359375 -21.5625 C 18.535156 -22.394531 17.148438 -22.8125 15.203125 -22.8125 C 14.117188 -22.8125 12.945312 -22.675781 11.6875 -22.40625 C 10.425781 -22.144531 9.101562 -21.695312 7.71875 -21.0625 C 6.8125 -20.644531 6.054688 -20.597656 5.453125 -20.921875 C 4.859375 -21.242188 4.457031 -21.75 4.25 -22.4375 C 4.039062 -23.132812 4.078125 -23.835938 4.359375 -24.546875 C 4.640625 -25.265625 5.210938 -25.789062 6.078125 -26.125 C 7.804688 -26.84375 9.46875 -27.347656 11.0625 -27.640625 C 12.65625 -27.941406 14.109375 -28.09375 15.421875 -28.09375 C 19.441406 -28.09375 22.425781 -27.164062 24.375 -25.3125 C 26.332031 -23.457031 27.3125 -20.578125 27.3125 -16.671875 L 27.3125 -3.15625 C 27.3125 -0.75 26.222656 0.453125 24.046875 0.453125 C 21.828125 0.453125 20.71875 -0.75 20.71875 -3.15625 L 20.71875 -4.390625 C 20.082031 -2.847656 19.066406 -1.632812 17.671875 -0.75 C 16.285156 0.125 14.640625 0.5625 12.734375 0.5625 Z M 14.1875 -4.28125 C 16.03125 -4.28125 17.5625 -4.914062 18.78125 -6.1875 C 20 -7.46875 20.609375 -9.082031 20.609375 -11.03125 L 20.609375 -12.28125 L 18.703125 -12.28125 C 15.171875 -12.28125 12.71875 -12.003906 11.34375 -11.453125 C 9.976562 -10.910156 9.296875 -9.925781 9.296875 -8.5 C 9.296875 -7.257812 9.722656 -6.242188 10.578125 -5.453125 C 11.441406 -4.671875 12.644531 -4.28125 14.1875 -4.28125 Z M 14.1875 -4.28125 "/></g></g></g><g fill="#ffffff" fill-opacity="1"><g transform="translate(276.306788, 224.038315)"><g><path d="M 7.265625 0.453125 C 4.859375 0.453125 3.65625 -0.75 3.65625 -3.15625 L 3.65625 -24.4375 C 3.65625 -26.800781 4.800781 -27.984375 7.09375 -27.984375 C 9.382812 -27.984375 10.53125 -26.800781 10.53125 -24.4375 L 10.53125 -22.6875 C 11.882812 -25.914062 14.773438 -27.71875 19.203125 -28.09375 C 20.816406 -28.28125 21.71875 -27.363281 21.90625 -25.34375 C 22.09375 -23.351562 21.117188 -22.242188 18.984375 -22.015625 L 17.734375 -21.90625 C 13.117188 -21.457031 10.8125 -19.09375 10.8125 -14.8125 L 10.8125 -3.15625 C 10.8125 -0.75 9.628906 0.453125 7.265625 0.453125 Z M 7.265625 0.453125 "/></g></g></g><g fill="#ffffff" fill-opacity="1"><g transform="translate(298.379739, 224.038315)"><g><path d="M 16.28125 0.5625 C 8.988281 0.5625 5.34375 -3.039062 5.34375 -10.25 L 5.34375 -22.25 L 2.421875 -22.25 C 0.546875 -22.25 -0.390625 -23.128906 -0.390625 -24.890625 C -0.390625 -26.648438 0.546875 -27.53125 2.421875 -27.53125 L 5.34375 -27.53125 L 5.34375 -32.65625 C 5.34375 -35.019531 6.523438 -36.203125 8.890625 -36.203125 C 11.222656 -36.203125 12.390625 -35.019531 12.390625 -32.65625 L 12.390625 -27.53125 L 18.359375 -27.53125 C 20.234375 -27.53125 21.171875 -26.648438 21.171875 -24.890625 C 21.171875 -23.128906 20.234375 -22.25 18.359375 -22.25 L 12.390625 -22.25 L 12.390625 -10.640625 C 12.390625 -8.835938 12.78125 -7.484375 13.5625 -6.578125 C 14.351562 -5.679688 15.632812 -5.234375 17.40625 -5.234375 C 18.039062 -5.234375 18.601562 -5.289062 19.09375 -5.40625 C 19.582031 -5.519531 20.015625 -5.59375 20.390625 -5.625 C 20.835938 -5.664062 21.210938 -5.523438 21.515625 -5.203125 C 21.816406 -4.890625 21.96875 -4.242188 21.96875 -3.265625 C 21.96875 -2.515625 21.84375 -1.847656 21.59375 -1.265625 C 21.351562 -0.679688 20.910156 -0.28125 20.265625 -0.0625 C 19.785156 0.09375 19.148438 0.234375 18.359375 0.359375 C 17.566406 0.492188 16.875 0.5625 16.28125 0.5625 Z M 16.28125 0.5625 "/></g></g></g></svg>